<svg xmlns="http://www.w3.org/2000/svg" width="73" height="49" viewBox="0 0 73 49">
  <g id="Grupo_23" data-name="Grupo 23" transform="translate(-144 -440)">
    <g id="Grupo_22" data-name="Grupo 22">
      <path id="Retângulo_19" data-name="Retângulo 19" d="M32,0H53A20,20,0,0,1,73,20v9A20,20,0,0,1,53,49H10A10,10,0,0,1,0,39V32A32,32,0,0,1,32,0Z" transform="translate(144 440)" fill="#a7b112"/>
      <g id="flag" transform="translate(175.63 446.767)">
        <g id="Grupo_2" data-name="Grupo 2" transform="translate(0)">
          <path id="Caminho_1" data-name="Caminho 1" d="M74.852,20.691l-2.6-6.5,2.6-6.5a1.033,1.033,0,0,0-.959-1.417H61.841V3.857a1.033,1.033,0,0,0-1.033-1.033H48.066V1.033a1.033,1.033,0,1,0-2.066,0v33.2a1.033,1.033,0,1,0,2.066,0V18.664h8.265v2.411a1.035,1.035,0,0,0,1.033,1.033H73.893a1.033,1.033,0,0,0,.959-1.417ZM59.774,16.6H48.066V4.89H59.774Zm.084,3.444,1.68-1.68a1.045,1.045,0,0,0,.3-.731v-9.3H72.367L70.179,13.8a1.034,1.034,0,0,0,0,.767l2.188,5.47Z" transform="translate(-46)" fill="#fff"/>
        </g>
      </g>
    </g>
  </g>
</svg>
