<svg id="whatsapp" xmlns="http://www.w3.org/2000/svg" width="22.646" height="22.646" viewBox="0 0 22.646 22.646">
  <path id="Caminho_6" data-name="Caminho 6" d="M22.646,11.031A11.137,11.137,0,0,1,6.155,20.691L0,22.646l2.006-5.92A10.919,10.919,0,0,1,.412,11.031a11.117,11.117,0,0,1,22.233,0ZM11.527,1.759a9.321,9.321,0,0,0-9.346,9.275,9.174,9.174,0,0,0,1.78,5.436L2.795,19.913l3.59-1.141a9.357,9.357,0,0,0,14.489-7.741A9.32,9.32,0,0,0,11.527,1.759Zm5.615,11.813c-.069-.112-.251-.179-.523-.315s-1.613-.789-1.862-.878-.433-.137-.614.134-.7.879-.862,1.061-.318.2-.59.07A7.513,7.513,0,0,1,10.5,12.3,8.135,8.135,0,0,1,8.983,10.43c-.16-.27-.016-.416.119-.551s.272-.316.409-.475a1.8,1.8,0,0,0,.272-.45.5.5,0,0,0-.023-.475c-.068-.136-.612-1.465-.84-2.006s-.453-.451-.613-.451S7.967,6,7.785,6a1,1,0,0,0-.726.337,3.026,3.026,0,0,0-.953,2.255,5.228,5.228,0,0,0,1.112,2.8,11.16,11.16,0,0,0,4.656,4.082c2.771,1.082,2.771.721,3.271.675a2.749,2.749,0,0,0,1.839-1.284A2.247,2.247,0,0,0,17.142,13.572Z" fill="#fff"/>
</svg>
